HIERARCHY
ROOT joint_Root
{
	OFFSET 0.0 0.0 0.0
	CHANNELS 6 Xposition Yposition Zposition Zrotation Xrotation Yrotation 
	JOINT Hips
	{
		OFFSET 4.5925 91.4895 -427.239
		CHANNELS 6 Xposition Yposition Zposition Zrotation Xrotation Yrotation 
		JOINT Spine
		{
			OFFSET 15.7357 0.0 0.0
			CHANNELS 6 Xposition Yposition Zposition Zrotation Xrotation Yrotation 
			JOINT Chest
			{
				OFFSET 8.98455 -0.406207 0.0
				CHANNELS 6 Xposition Yposition Zposition Zrotation Xrotation Yrotation 
				JOINT Neck
				{
					OFFSET 16.3773 0.0 0.0
					CHANNELS 6 Xposition Yposition Zposition Zrotation Xrotation Yrotation 
					JOINT Head
					{
						OFFSET 6.45672 0.0 0.0
						CHANNELS 6 Xposition Yposition Zposition Zrotation Xrotation Yrotation 
						End Site
						{
							OFFSET 0.0 0.0 0.0
						}
					}
				}
				JOINT Shoulder_L
				{
					OFFSET 12.9942 -0.242716 4.98039
					CHANNELS 6 Xposition Yposition Zposition Zrotation Xrotation Yrotation 
					JOINT UpperArm_L
					{
						OFFSET 5.34809 0.0 0.0
						CHANNELS 6 Xposition Yposition Zposition Zrotation Xrotation Yrotation 
						JOINT LowerArm_L
						{
							OFFSET 24.3286 1.87007e-05 0.0
							CHANNELS 6 Xposition Yposition Zposition Zrotation Xrotation Yrotation 
							JOINT Hand_L
							{
								OFFSET 22.2916 0.0 0.0
								CHANNELS 6 Xposition Yposition Zposition Zrotation Xrotation Yrotation 
								End Site
								{
									OFFSET 0.0 0.0 0.0
								}
							}
						}
					}
				}
				JOINT Shoulder_R
				{
					OFFSET 12.9945 -0.242716 -4.98039
					CHANNELS 6 Xposition Yposition Zposition Zrotation Xrotation Yrotation 
					JOINT UpperArm_R
					{
						OFFSET -5.34813 0.0 0.0
						CHANNELS 6 Xposition Yposition Zposition Zrotation Xrotation Yrotation 
						JOINT LowerArm_R
						{
							OFFSET -24.3289 0.000322201 0.0
							CHANNELS 6 Xposition Yposition Zposition Zrotation Xrotation Yrotation 
							JOINT Hand_R
							{
								OFFSET -22.2915 -0.000108084 0.0
								CHANNELS 6 Xposition Yposition Zposition Zrotation Xrotation Yrotation 
								End Site
								{
									OFFSET 0.0 0.0 0.0
								}
							}
						}
					}
				}
			}
		}
		JOINT UpperLeg_L
		{
			OFFSET -2.19248 -6.46944 0.0
			CHANNELS 6 Xposition Yposition Zposition Zrotation Xrotation Yrotation 
			JOINT LowerLeg_L
			{
				OFFSET 39.0811 0.0 -1.23785e-05
				CHANNELS 6 Xposition Yposition Zposition Zrotation Xrotation Yrotation 
				JOINT Foot_L
				{
					OFFSET 40.9854 0.0 -1.26872e-05
					CHANNELS 6 Xposition Yposition Zposition Zrotation Xrotation Yrotation 
					JOINT Toes_L
					{
						OFFSET 11.7543 0.0 0.0
						CHANNELS 6 Xposition Yposition Zposition Zrotation Xrotation Yrotation 
						End Site
						{
							OFFSET 0.0 0.0 0.0
						}
					}
				}
			}
		}
		JOINT UpperLeg_R
		{
			OFFSET -2.19251 6.46944 0.0
			CHANNELS 6 Xposition Yposition Zposition Zrotation Xrotation Yrotation 
			JOINT LowerLeg_R
			{
				OFFSET -39.0811 -0.00228153 -0.0401928
				CHANNELS 6 Xposition Yposition Zposition Zrotation Xrotation Yrotation 
				JOINT Foot_R
				{
					OFFSET -40.9854 0.0 0.0
					CHANNELS 6 Xposition Yposition Zposition Zrotation Xrotation Yrotation 
					JOINT Toes_R
					{
						OFFSET -11.7543 0.0 0.0
						CHANNELS 6 Xposition Yposition Zposition Zrotation Xrotation Yrotation 
						End Site
						{
							OFFSET 0.0 0.0 0.0
						}
					}
				}
			}
		}
	}
}
MOTION
Frames:	4
Frame Time:	0.0333333
0.000000 0.000000 0.000000 0.000000 0.000000 -0.000000 0.327406 89.423500 530.206000 -88.222000 1.530140 -178.284000 15.735700 0.000005 -0.000001 84.877300 79.556800 -85.174200 8.984550 -0.406207 -0.000000 13.037000 -1.859630 -0.381309 16.377300 -0.000001 -0.000001 1.330000 -4.013500 1.155270 6.456720 -0.000001 -0.000000 -3.342140 -2.840980 -0.571234 12.994200 -0.242716 4.980390 -90.640800 2.318040 -74.543400 5.348090 -0.000007 -0.000001 -50.942100 39.061700 -35.412400 24.328600 0.000019 0.000005 10.105700 17.074200 -31.258900 22.291600 -0.000001 0.000005 12.616900 5.178850 3.244040 12.994500 -0.242716 -4.980390 88.395300 10.438500 -81.210200 -5.348130 -0.000001 -0.000004 -61.713900 26.287500 -13.229000 -24.328900 0.000322 -0.000009 0.705331 2.506330 -15.745300 -22.291500 -0.000108 -0.000004 16.449400 5.344650 -1.217390 -2.192480 -6.469440 -0.000000 -178.031000 -11.592600 -11.090100 39.081100 -0.000007 -0.000012 -0.371931 0.481197 37.702300 40.985400 -0.000006 -0.000013 0.252412 -2.448120 -75.234700 11.754300 -0.000000 0.000003 -0.000068 -0.000735 -16.605900 -2.192510 6.469440 -0.000001 -179.317000 16.541900 155.097000 -39.081100 -0.002282 -0.040193 0.101333 -0.058822 59.059500 -40.985400 0.000008 0.000006 3.842900 -4.298010 -62.579400 -11.754300 -0.000006 -0.000006 -0.013097 -0.125479 -21.689900
0.000000 0.000000 0.000000 0.000000 0.000000 -0.000000 0.287750 89.664600 528.614000 -88.083000 1.515570 -178.750000 15.735700 0.000005 -0.000001 84.156000 79.654400 -84.358300 8.984550 -0.406207 -0.000000 12.820100 -2.094980 -0.169286 16.377300 -0.000001 -0.000001 1.255670 -4.193040 1.277900 6.456720 -0.000001 -0.000000 -3.352870 -2.968440 -0.262639 12.994200 -0.242716 4.980390 -90.543800 1.967550 -74.546700 5.348090 -0.000007 -0.000001 -50.357200 38.479100 -36.095400 24.328600 0.000019 0.000005 10.455900 16.822000 -32.524500 22.291600 -0.000001 0.000005 12.591900 5.185990 3.068040 12.994500 -0.242716 -4.980390 88.393900 10.226300 -81.025000 -5.348130 -0.000001 -0.000004 -62.269400 26.068800 -11.474300 -24.328900 0.000322 -0.000009 0.775597 2.735920 -15.854300 -22.291500 -0.000108 -0.000004 16.398700 5.344740 -1.220170 -2.192480 -6.469440 -0.000000 -177.825000 -12.290700 -9.517280 39.081100 -0.000007 -0.000012 -0.287795 0.397899 35.878200 40.985400 -0.000006 -0.000013 0.377531 -1.713820 -75.426100 11.754300 -0.000000 0.000003 -0.000169 -0.001607 -16.638500 -2.192510 6.469440 -0.000001 -177.837000 17.261600 154.288000 -39.081100 -0.002282 -0.040193 0.069471 -0.051977 51.875300 -40.985400 0.000008 0.000006 2.555670 -1.770870 -63.267900 -11.754300 -0.000006 -0.000006 -0.014325 -0.133526 -22.019900
0.000000 0.000000 0.000000 0.000000 0.000000 -0.000000 0.287908 89.764200 527.011000 -88.106200 1.370780 -179.409000 15.735700 0.000005 -0.000001 83.385500 79.795200 -83.514900 8.984550 -0.406207 -0.000000 12.512600 -2.334200 -0.002920 16.377300 -0.000001 -0.000001 0.925180 -4.278300 1.268880 6.456720 -0.000001 -0.000000 -3.245520 -3.026220 0.018564 12.994200 -0.242716 4.980390 -90.499400 1.792690 -74.432200 5.348090 -0.000007 -0.000001 -49.769600 37.856400 -36.625900 24.328600 0.000019 0.000005 10.363500 16.052300 -33.478800 22.291600 -0.000001 0.000005 12.849700 5.202740 2.650450 12.994500 -0.242716 -4.980390 88.381500 10.088000 -80.836200 -5.348130 -0.000001 -0.000004 -62.730300 25.988300 -9.974850 -24.328900 0.000322 -0.000009 0.760319 2.618090 -16.221200 -22.291500 -0.000108 -0.000004 15.960100 5.344970 -1.227020 -2.192480 -6.469440 -0.000000 -177.710000 -12.599200 -8.241180 39.081100 -0.000007 -0.000012 -0.294475 0.430456 34.376600 40.985400 -0.000006 -0.000013 0.345917 -1.159500 -75.822800 11.754300 -0.000000 0.000003 -0.000147 -0.001429 -16.631900 -2.192510 6.469440 -0.000001 -176.308000 18.357000 153.540000 -39.081100 -0.002282 -0.040193 0.042817 -0.041725 43.465800 -40.985400 0.000008 0.000006 1.347760 -0.959821 -62.354900 -11.754300 -0.000006 -0.000006 -0.012756 -0.123190 -21.596100
0.000000 0.000000 0.000000 0.000000 0.000000 -0.000000 0.407934 89.683700 525.243000 -88.060900 0.967830 -179.833000 15.735700 0.000005 -0.000001 82.723600 79.836200 -82.713800 8.984550 -0.406207 -0.000000 12.407100 -2.550400 0.296874 16.377300 -0.000001 -0.000001 0.891228 -4.319010 1.276630 6.456720 -0.000001 -0.000000 -3.576010 -3.060920 0.202170 12.994200 -0.242716 4.980390 -90.484300 1.761670 -74.626600 5.348090 -0.000007 -0.000001 -49.831000 36.769400 -36.401400 24.328600 0.000019 0.000005 10.626300 15.838900 -34.505400 22.291600 -0.000001 0.000005 13.114800 5.208670 2.500950 12.994500 -0.242716 -4.980390 88.362600 10.087300 -80.730400 -5.348130 -0.000001 -0.000004 -63.048100 25.865000 -8.920530 -24.328900 0.000322 -0.000009 0.749347 2.546740 -16.423600 -22.291500 -0.000108 -0.000004 15.738800 5.342810 -1.162710 -2.192480 -6.469440 -0.000000 -177.339000 -12.582500 -6.955660 39.081100 -0.000007 -0.000012 -0.310950 0.469704 33.505700 40.985400 -0.000006 -0.000013 0.012362 -0.930116 -76.596900 11.754300 -0.000000 0.000003 -0.000096 -0.000994 -16.615700 -2.192510 6.469440 -0.000001 -174.609000 19.727600 153.193000 -39.081100 -0.002282 -0.040193 0.024957 -0.030593 35.307100 -40.985400 0.000008 0.000006 1.560390 -0.698520 -61.176800 -11.754300 -0.000006 -0.000006 -0.012598 -0.122119 -21.552200
